External Loads File
version=1
nRows=94
nColumns=13
Range=5.000000e-03-10 seconds
endheader
time 	forceRightX 	forceRightY 	forceRightZ 	pointRightX 	pointRightY 	pointRightZ 	forceLeftX 	forceLeftY 	forceLeftZ 	pointLeftX 	pointLeftY 	pointLeftZ 		
0.005000 64.825336 171.134988 -0.000000 0.103307 0.232674 -0.145993 -47.087610 97.664507 -0.000000 0.365770 0.424362 -0.379639
0.010000 64.982778 170.551530 -0.000000 0.103291 0.232705 -0.145978 -45.539528 98.370133 -0.000000 0.365806 0.424343 -0.379634
0.015000 65.155155 169.982226 -0.000000 0.103286 0.232736 -0.145978 -44.098726 99.042749 -0.000000 0.365851 0.424325 -0.379643
0.020000 65.420996 169.416703 -0.000000 0.103059 0.232773 -0.145849 -42.822317 99.662530 -0.000000 0.366002 0.424369 -0.379730
0.025000 65.279390 169.054909 -0.000000 0.103012 0.232804 -0.145861 -41.981084 100.122730 -0.000000 0.365956 0.425132 -0.379698
0.030000 65.570040 168.574200 -0.000000 0.103017 0.232846 -0.145867 -40.995801 100.670307 -0.000000 0.366302 0.425100 -0.379733
0.035000 65.766087 168.178966 -0.000000 0.103021 0.232898 -0.145859 -40.090264 101.205494 -0.000000 0.366370 0.425071 -0.379724
0.040000 65.910397 167.854601 -0.000000 0.103013 0.232936 -0.145857 -39.169739 101.762561 -0.000000 0.366425 0.425094 -0.379734
0.045000 66.023585 167.588290 -0.000000 0.103011 0.232957 -0.145860 -38.198625 102.337736 -0.000000 0.366476 0.425076 -0.379736
0.050000 66.066183 167.374769 -0.000000 0.103006 0.232975 -0.145855 -37.217250 102.886264 -0.000000 0.366527 0.425076 -0.379739
0.055000 66.033056 167.188217 -0.000000 0.103011 0.232997 -0.145860 -36.250213 103.382994 -0.000000 0.366565 0.425058 -0.379733
0.060000 65.916086 167.018384 -0.000000 0.103008 0.233003 -0.145877 -35.350503 103.806366 -0.000000 0.366617 0.425069 -0.379734
0.065000 65.759535 166.850525 -0.000000 0.103003 0.233018 -0.145863 -34.587918 104.120623 -0.000000 0.366659 0.425069 -0.379735
0.070000 65.562266 166.683158 -0.000000 0.103016 0.233025 -0.145859 -34.052620 104.276015 -0.000000 0.366697 0.425081 -0.379744
0.075000 65.374573 166.482367 -0.000000 0.103013 0.233043 -0.145862 -33.752063 104.255100 -0.000000 0.366752 0.425050 -0.379745
0.080000 65.138379 166.265245 -0.000000 0.103015 0.233049 -0.145857 -33.740574 104.030032 -0.000000 0.366779 0.425073 -0.379744
0.085000 64.916601 166.025892 -0.000000 0.103027 0.233058 -0.145859 -33.984959 103.610632 -0.000000 0.366821 0.425092 -0.379736
0.090000 64.744262 165.788047 -0.000000 0.103028 0.233058 -0.145861 -34.446843 103.020729 -0.000000 0.366865 0.425085 -0.379742
0.095000 64.634766 165.592284 -0.000000 0.103022 0.233071 -0.145859 -35.107561 102.278912 -0.000000 0.366874 0.425084 -0.379740
0.100000 64.614619 165.471639 -0.000000 0.103022 0.233083 -0.145864 -35.944109 101.413380 -0.000000 0.366901 0.425103 -0.379742
0.105000 64.694226 165.444379 -0.000000 0.103034 0.233072 -0.145860 -36.888046 100.496790 -0.000000 0.366932 0.425107 -0.379731
0.110000 64.886255 165.494805 -0.000000 0.103027 0.233087 -0.145864 -37.815875 99.631277 -0.000000 0.366951 0.425096 -0.379733
0.115000 65.124507 165.618670 -0.000000 0.103023 0.233089 -0.145860 -38.664913 98.866235 -0.000000 0.366974 0.425115 -0.379733
0.120000 65.420571 165.784883 -0.000000 0.103016 0.233103 -0.145852 -39.355434 98.229366 -0.000000 0.367001 0.425085 -0.379738
0.125000 65.696653 166.001049 -0.000000 0.103008 0.233112 -0.145850 -39.877660 97.722237 -0.000000 0.367005 0.425096 -0.379730
0.130000 65.974768 166.226798 -0.000000 0.102990 0.233131 -0.145861 -40.195314 97.368786 -0.000000 0.367036 0.425089 -0.379723
0.135000 66.202904 166.451824 -0.000000 0.102994 0.233145 -0.145860 -40.335604 97.174264 -0.000000 0.367041 0.425066 -0.379724
0.140000 66.377705 166.660013 -0.000000 0.102974 0.233163 -0.145862 -40.290427 97.156800 -0.000000 0.367031 0.425066 -0.379726
0.145000 66.505766 166.834146 -0.000000 0.102951 0.233173 -0.145852 -40.064327 97.315242 -0.000000 0.367046 0.425058 -0.379733
0.150000 66.578727 166.960802 -0.000000 0.102941 0.233180 -0.145863 -39.701343 97.622707 -0.000000 0.367035 0.424998 -0.379723
0.155000 66.586993 167.041639 -0.000000 0.102925 0.233208 -0.145864 -39.252350 98.057871 -0.000000 0.367057 0.424998 -0.379714
0.160000 66.557095 167.085655 -0.000000 0.102908 0.233217 -0.145854 -38.759085 98.604175 -0.000000 0.367051 0.424968 -0.379702
0.165000 66.516747 167.108139 -0.000000 0.102892 0.233240 -0.145865 -38.276721 99.223238 -0.000000 0.367039 0.424956 -0.379717
0.170000 66.494050 167.119431 -0.000000 0.102875 0.233269 -0.145868 -37.835151 99.878119 -0.000000 0.367022 0.424926 -0.379714
0.175000 66.504383 167.141782 -0.000000 0.102869 0.233277 -0.145867 -37.438738 100.544627 -0.000000 0.367030 0.424850 -0.379717
0.180000 66.541647 167.219337 -0.000000 0.102841 0.233304 -0.145874 -37.087665 101.203932 -0.000000 0.367010 0.424798 -0.379709
0.185000 66.597808 167.381024 -0.000000 0.102832 0.233321 -0.145859 -36.750327 101.858888 -0.000000 0.367011 0.424790 -0.379709
0.190000 66.706765 167.602079 -0.000000 0.102828 0.233348 -0.145869 -36.350263 102.532760 -0.000000 0.367004 0.424759 -0.379713
0.195000 66.858834 167.860366 -0.000000 0.102814 0.233364 -0.145864 -35.867438 103.214230 -0.000000 0.366999 0.424722 -0.379705
0.200000 67.057863 168.134926 -0.000000 0.102796 0.233389 -0.145859 -35.308988 103.869590 -0.000000 0.367001 0.424680 -0.379734
0.205000 67.267535 168.421349 -0.000000 0.102778 0.233385 -0.145837 -34.730827 104.448745 -0.000000 0.367018 0.424661 -0.379756
0.210000 67.509633 168.682229 -0.000000 0.102768 0.233419 -0.145854 -34.168504 104.916855 -0.000000 0.367041 0.424612 -0.379783
0.215000 67.695572 168.916286 -0.000000 0.102763 0.233422 -0.145844 -33.701947 105.241067 -0.000000 0.367071 0.424600 -0.379817
0.220000 68.122698 168.973146 -0.000000 0.102754 0.233460 -0.145845 -33.138499 105.486844 -0.000000 0.366560 0.423522 -0.379541
0.225000 68.194705 169.079636 -0.000000 0.102744 0.233479 -0.145842 -32.857151 105.533045 -0.000000 0.366564 0.423485 -0.379545
0.230000 68.180720 169.127527 -0.000000 0.102731 0.233483 -0.145841 -32.716541 105.420657 -0.000000 0.366572 0.423474 -0.379549
0.235000 68.103717 169.106023 -0.000000 0.102729 0.233510 -0.145841 -32.721229 105.150837 -0.000000 0.366569 0.423440 -0.379548
0.240000 67.944558 169.020017 -0.000000 0.102719 0.233519 -0.145832 -32.896618 104.723689 -0.000000 0.366583 0.423424 -0.379541
0.245000 67.717796 168.877964 -0.000000 0.102722 0.233526 -0.145836 -33.235855 104.161467 -0.000000 0.366585 0.423407 -0.379555
0.250000 67.488725 168.692190 -0.000000 0.102715 0.233571 -0.145826 -33.686591 103.515240 -0.000000 0.366591 0.423380 -0.379554
0.255000 67.246127 168.513302 -0.000000 0.102709 0.233589 -0.145822 -34.264076 102.805211 -0.000000 0.366599 0.423363 -0.379557
0.260000 67.017611 168.369940 -0.000000 0.102717 0.233605 -0.145827 -34.974421 102.038811 -0.000000 0.366609 0.423348 -0.379544
0.265000 66.836699 168.281122 -0.000000 0.102700 0.233628 -0.145829 -35.783299 101.242573 -0.000000 0.366613 0.423319 -0.379570
0.270000 66.693201 168.282265 -0.000000 0.102693 0.233632 -0.145827 -36.652688 100.449249 -0.000000 0.366627 0.423315 -0.379481
0.275000 66.645393 168.382070 -0.000000 0.102688 0.233647 -0.145829 -37.507115 99.699842 -0.000000 0.366640 0.423301 -0.379486
0.280000 66.692265 168.592507 -0.000000 0.102690 0.233662 -0.145826 -38.280676 99.039488 -0.000000 0.366647 0.423300 -0.379492
0.285000 66.832861 168.886912 -0.000000 0.102678 0.233672 -0.145824 -38.863443 98.544123 -0.000000 0.366657 0.423280 -0.379492
0.290000 67.007022 169.239468 -0.000000 0.102672 0.233686 -0.145832 -39.188336 98.272854 -0.000000 0.366664 0.423268 -0.379484
0.295000 67.180420 169.618731 -0.000000 0.102658 0.233698 -0.145822 -39.210649 98.264218 -0.000000 0.366668 0.423248 -0.379503
0.300000 67.312513 170.010524 -0.000000 0.102654 0.233704 -0.145829 -38.927267 98.520819 -0.000000 0.366676 0.423246 -0.379498
0.305000 67.412300 170.389563 -0.000000 0.102647 0.233706 -0.145820 -38.371823 99.002878 -0.000000 0.366686 0.423242 -0.379499
0.310000 67.497962 170.722750 -0.000000 0.102642 0.233733 -0.145828 -37.620351 99.636412 -0.000000 0.366683 0.423229 -0.379504
0.315000 67.560944 170.985383 -0.000000 0.102616 0.233736 -0.145830 -36.747721 100.347589 -0.000000 0.366691 0.423217 -0.379500
0.320000 67.583720 171.170287 -0.000000 0.102623 0.233752 -0.145836 -35.823953 101.058213 -0.000000 0.366688 0.423214 -0.379507
0.325000 67.579099 171.278561 -0.000000 0.102607 0.233760 -0.145828 -34.930217 101.679118 -0.000000 0.366690 0.423192 -0.379499
0.330000 67.523232 171.344477 -0.000000 0.102606 0.233764 -0.145823 -34.176227 102.135111 -0.000000 0.366681 0.423177 -0.379496
0.335000 67.458766 171.390697 -0.000000 0.102583 0.233761 -0.145821 -33.613795 102.407912 -0.000000 0.366690 0.423162 -0.379512
0.340000 67.425169 171.440652 -0.000000 0.102575 0.233817 -0.145826 -33.281880 102.497231 -0.000000 0.366677 0.423135 -0.379504
0.345000 67.389089 171.533386 -0.000000 0.102566 0.233798 -0.145823 -33.228390 102.403338 -0.000000 0.366670 0.423120 -0.379509
0.350000 67.413664 171.660626 -0.000000 0.102554 0.233813 -0.145825 -33.399922 102.164902 -0.000000 0.366670 0.423104 -0.379522
0.355000 67.499651 171.833976 -0.000000 0.102545 0.233839 -0.145840 -33.778332 101.800856 -0.000000 0.366677 0.423077 -0.379518
0.360000 67.620915 172.067479 -0.000000 0.102522 0.233853 -0.145821 -34.370921 101.311307 -0.000000 0.366664 0.423080 -0.379516
0.365000 67.805050 172.339790 -0.000000 0.102518 0.233860 -0.145814 -35.116847 100.730016 -0.000000 0.366675 0.423057 -0.379520
0.370000 68.018475 172.635284 -0.000000 0.102510 0.233857 -0.145833 -35.950569 100.104589 -0.000000 0.366673 0.423041 -0.379520
0.375000 68.259346 172.916293 -0.000000 0.102487 0.233872 -0.145830 -36.793402 99.483423 -0.000000 0.366669 0.423028 -0.379512
0.380000 68.488539 173.166888 -0.000000 0.102494 0.233887 -0.145836 -37.598557 98.903045 -0.000000 0.366675 0.423002 -0.379520
0.385000 68.682823 173.374160 -0.000000 0.102490 0.233900 -0.145830 -38.302347 98.409648 -0.000000 0.366675 0.422977 -0.379523
0.390000 68.818061 173.529570 -0.000000 0.102482 0.233909 -0.145836 -38.844223 98.042243 -0.000000 0.366672 0.422958 -0.379535
0.395000 68.898916 173.625777 -0.000000 0.102486 0.233926 -0.145838 -39.151741 97.841325 -0.000000 0.366687 0.422944 -0.379531
0.400000 68.938375 173.673661 -0.000000 0.102481 0.233941 -0.145832 -39.161611 97.845326 -0.000000 0.366690 0.422930 -0.379525
0.405000 68.964002 173.688034 -0.000000 0.102465 0.233955 -0.145841 -38.849250 98.067801 -0.000000 0.366697 0.422912 -0.379537
0.410000 68.977058 173.688517 -0.000000 0.102462 0.233967 -0.145837 -38.237202 98.493918 -0.000000 0.366690 0.422883 -0.379529
0.415000 68.993943 173.681502 -0.000000 0.102458 0.234003 -0.145820 -37.350348 99.105691 -0.000000 0.366706 0.422874 -0.379535
0.420000 68.989828 173.683428 -0.000000 0.102472 0.234012 -0.145835 -36.299325 99.834606 -0.000000 0.366718 0.422857 -0.379544
0.425000 68.983327 173.684946 -0.000000 0.102458 0.234022 -0.145822 -35.247091 100.564632 -0.000000 0.366719 0.422825 -0.379539
0.430000 68.939310 173.693091 -0.000000 0.102458 0.234044 -0.145828 -34.386343 101.163478 -0.000000 0.366723 0.422823 -0.379535
0.435000 68.868829 173.700152 -0.000000 0.102459 0.234053 -0.145816 -33.841227 101.535299 -0.000000 0.366727 0.422803 -0.379539
0.440000 68.784593 173.701863 -0.000000 0.102464 0.234080 -0.145824 -33.702150 101.609950 -0.000000 0.366735 0.422781 -0.379540
0.445000 68.687908 173.699978 -0.000000 0.102473 0.234094 -0.145838 -34.003095 101.364848 -0.000000 0.366755 0.422748 -0.379541
0.450000 68.565975 173.705555 -0.000000 0.102471 0.234102 -0.145825 -34.707524 100.832112 -0.000000 0.366751 0.422737 -0.379536
0.455000 68.450434 173.708907 -0.000000 0.102464 0.234133 -0.145841 -35.720851 100.070302 -0.000000 0.366756 0.422729 -0.379533
0.460000 68.316122 173.710461 -0.000000 0.102467 0.234142 -0.145846 -36.962531 99.135583 -0.000000 0.366762 0.422707 -0.379540
0.465000 68.155223 173.697985 -0.000000 0.102465 0.234154 -0.145840 -38.294683 98.122760 -0.000000 0.366762 0.422695 -0.379540
0.470000 67.970568 173.663420 -0.000000 0.102460 0.234166 -0.145837 -39.557972 97.144357 -0.000000 0.366765 0.422687 -0.379537
